<?xml version="1.0" encoding="UTF-8"?><svg id="Isolation_Mode" xmlns="http://www.w3.org/2000/svg" viewBox="0 0 283.03 56.44"><defs><style>.cls-1{fill:#010101;}.cls-2{fill:#231f20;}</style></defs><g><path class="cls-2" d="M49.13,18.04h2.17v24.06h-2.17V18.04Z"/><path class="cls-2" d="M58.49,40.78c-.67-1.06-1.01-2.69-1.01-4.89v-4.75c0-2.2,.34-3.83,1.01-4.89s1.86-1.59,3.57-1.59,2.89,.53,3.56,1.59c.67,1.06,1.01,2.69,1.01,4.89v4.75c0,2.2-.34,3.83-1.01,4.89-.67,1.06-1.86,1.59-3.56,1.59s-2.89-.53-3.57-1.59Zm5.15-.61c.35-.38,.57-.89,.67-1.54,.1-.65,.15-1.53,.15-2.61v-4.99c0-1.09-.05-1.96-.15-2.61-.1-.65-.32-1.17-.67-1.54-.35-.38-.88-.56-1.59-.56s-1.24,.19-1.59,.56c-.35,.38-.57,.89-.67,1.53-.1,.64-.15,1.52-.15,2.63v4.99c0,1.11,.05,1.99,.15,2.63,.1,.64,.32,1.15,.67,1.53s.88,.56,1.59,.56,1.24-.19,1.59-.56Z"/><path class="cls-2" d="M73.13,41.42c-.46-.63-.68-1.53-.68-2.7v-13.78h2.2v13.31c0,.87,.13,1.49,.4,1.86s.68,.55,1.23,.55c.49,0,1-.15,1.53-.46,.52-.31,1.03-.72,1.5-1.23v-14.02h2.17v17.17h-2.17v-1.9c-.58,.67-1.22,1.2-1.93,1.59-.71,.39-1.47,.58-2.26,.58-.87,0-1.54-.32-1.99-.95Z"/><path class="cls-2" d="M88.45,40.71c-.64-1.11-.97-2.95-.97-5.53v-3.18c0-2.44,.29-4.27,.86-5.5,.57-1.23,1.63-1.84,3.18-1.84,1.11,0,2.12,.5,3.03,1.49v-8.11h2.17v24.06h-2.17v-1.22c-.91,.99-1.89,1.49-2.94,1.49-1.47,0-2.52-.55-3.16-1.66Zm6.1-1.19v-11.94c-.91-.81-1.76-1.22-2.55-1.22-.91,0-1.53,.39-1.86,1.16-.33,.77-.49,2.03-.49,3.77v4.07c0,1.86,.16,3.21,.49,4.04,.33,.83,.96,1.25,1.92,1.25,.83,0,1.66-.38,2.5-1.13Z"/><path class="cls-2" d="M112.23,24.93h2.2v2.35c.51-.85,1.12-1.49,1.83-1.9,.7-.42,1.41-.62,2.12-.62,.18,0,.31,.01,.39,.03v2.32c-.36-.12-.71-.18-1.07-.18-1.37,0-2.46,.66-3.27,1.99v13.19h-2.2V24.93Z"/><path class="cls-2" d="M124.11,19.62h2.17v2.94h-2.17v-2.94Zm0,5.32h2.17v17.17h-2.17V24.93Z"/><path class="cls-2" d="M131.77,24.93h2.2l2.79,14.68,2.76-14.68h2.11l-3.59,17.17h-2.55l-3.71-17.17Z"/><path class="cls-2" d="M148.44,41.72c-.67-.44-1.17-1.14-1.49-2.11-.32-.97-.48-2.29-.48-3.95v-4.34c0-1.68,.16-3,.49-3.97,.33-.96,.83-1.65,1.51-2.06,.68-.42,1.57-.62,2.66-.62,1.19,0,2.1,.25,2.75,.76s1.09,1.26,1.34,2.27c.25,1.01,.37,2.37,.37,4.07l-.03,1.54h-6.92v2.56c0,1.21,.07,2.16,.21,2.85,.14,.69,.39,1.2,.74,1.53,.36,.33,.86,.49,1.52,.49,.75,0,1.33-.24,1.74-.71,.41-.48,.61-1.34,.61-2.58v-1.19h2.11v.95c0,1.66-.35,2.94-1.04,3.83-.69,.89-1.83,1.34-3.42,1.34-1.11,0-2-.22-2.67-.65Zm5.02-9.66v-1.43c0-1.03-.05-1.84-.16-2.44-.11-.59-.33-1.06-.67-1.4-.34-.34-.84-.5-1.51-.5-.61,0-1.1,.13-1.46,.4s-.61,.73-.77,1.4c-.16,.66-.24,1.6-.24,2.81v1.16h4.81Z"/><path class="cls-2" d="M161.66,24.93h2.2v2.35c.51-.85,1.12-1.49,1.83-1.9,.7-.42,1.41-.62,2.12-.62,.18,0,.31,.01,.39,.03v2.32c-.36-.12-.71-.18-1.07-.18-1.37,0-2.46,.66-3.27,1.99v13.19h-2.2V24.93Z"/><path class="cls-2" d="M183.7,41.52c-.67-.56-1.12-1.33-1.35-2.29-.23-.96-.34-2.17-.34-3.64v-4.01c0-1.66,.13-2.99,.4-3.98,.27-.99,.73-1.73,1.4-2.21,.66-.48,1.6-.73,2.81-.73,1.68,0,2.83,.46,3.45,1.38,.61,.92,.92,2.29,.92,4.11v.83h-2.02v-.83c0-1.01-.07-1.79-.22-2.35s-.39-.95-.73-1.17-.8-.34-1.4-.34c-.67,0-1.18,.16-1.53,.48-.35,.32-.58,.82-.71,1.5-.13,.68-.19,1.67-.19,2.96v4.81c0,1.19,.07,2.12,.21,2.79,.14,.67,.39,1.16,.74,1.46,.36,.3,.86,.45,1.52,.45s1.17-.14,1.5-.43c.33-.29,.54-.72,.65-1.29,.11-.57,.16-1.38,.16-2.41v-.95h2.02v.83c0,1.29-.11,2.35-.34,3.19s-.66,1.5-1.29,1.98c-.63,.47-1.54,.71-2.73,.71-1.27,0-2.24-.28-2.91-.85Z"/><path class="cls-2" d="M197.01,24.93h2.2v2.35c.51-.85,1.12-1.49,1.83-1.9,.7-.42,1.41-.62,2.12-.62,.18,0,.31,.01,.39,.03v2.32c-.36-.12-.71-.18-1.07-.18-1.37,0-2.46,.66-3.27,1.99v13.19h-2.2V24.93Z"/><path class="cls-2" d="M210.2,41.72c-.67-.44-1.17-1.14-1.49-2.11-.32-.97-.48-2.29-.48-3.95v-4.34c0-1.68,.16-3,.49-3.97,.33-.96,.83-1.65,1.51-2.06,.68-.42,1.57-.62,2.66-.62,1.19,0,2.1,.25,2.75,.76s1.09,1.26,1.34,2.27c.25,1.01,.37,2.37,.37,4.07l-.03,1.54h-6.92v2.56c0,1.21,.07,2.16,.21,2.85,.14,.69,.39,1.2,.74,1.53,.36,.33,.86,.49,1.52,.49,.75,0,1.33-.24,1.74-.71,.41-.48,.61-1.34,.61-2.58v-1.19h2.11v.95c0,1.66-.35,2.94-1.04,3.83-.69,.89-1.83,1.34-3.42,1.34-1.11,0-2-.22-2.67-.65Zm5.02-9.66v-1.43c0-1.03-.05-1.84-.16-2.44-.11-.59-.33-1.06-.67-1.4-.34-.34-.84-.5-1.51-.5-.61,0-1.1,.13-1.46,.4s-.61,.73-.77,1.4c-.16,.66-.24,1.6-.24,2.81v1.16h4.81Z"/><path class="cls-2" d="M223.75,41.27c-.63-.73-.95-1.64-.95-2.73s.22-2.05,.65-2.78c.44-.72,1.12-1.37,2.05-1.95s2.34-1.29,4.22-2.14v-1.22c0-1.07-.06-1.9-.19-2.5-.13-.59-.35-1.02-.65-1.28-.31-.26-.74-.39-1.29-.39-1.6,0-2.41,.98-2.41,2.94v.62l-2.14-.06,.03-.5c.06-1.62,.47-2.8,1.25-3.54s1.9-1.1,3.39-1.1,2.58,.46,3.22,1.37c.64,.91,.97,2.35,.97,4.31v8.35c0,.55,.01,1.19,.04,1.9,.03,.71,.06,1.22,.1,1.51h-1.93l-.33-2.38c-.26,.75-.7,1.38-1.32,1.89s-1.36,.76-2.21,.76c-1.03,0-1.86-.37-2.5-1.1Zm4.8-1.35c.49-.41,.88-.89,1.17-1.44v-5.35c-1.39,.73-2.37,1.28-2.94,1.65-.57,.37-1.02,.8-1.34,1.29s-.47,1.14-.47,1.93c0,.85,.18,1.49,.55,1.9s.84,.62,1.41,.62,1.13-.2,1.62-.61Z"/><path class="cls-2" d="M239.52,41.35c-.44-.64-.65-1.58-.65-2.81v-12.18h-2.11v-1.43h2.11v-5.32h2.17v5.32h2.85v1.43h-2.85v11.97c0,.87,.1,1.47,.3,1.8s.6,.49,1.22,.49c.38,0,.79-.05,1.25-.15v1.66c-.61,.12-1.23,.18-1.84,.18-1.19,0-2-.32-2.44-.97Z"/><path class="cls-2" d="M249.41,19.62h2.17v2.94h-2.17v-2.94Zm0,5.32h2.17v17.17h-2.17V24.93Z"/><path class="cls-2" d="M257.08,24.93h2.2l2.79,14.68,2.76-14.68h2.11l-3.59,17.17h-2.55l-3.71-17.17Z"/><path class="cls-2" d="M273.74,41.72c-.67-.44-1.17-1.14-1.49-2.11-.32-.97-.48-2.29-.48-3.95v-4.34c0-1.68,.16-3,.49-3.97,.33-.96,.83-1.65,1.51-2.06,.68-.42,1.57-.62,2.66-.62,1.19,0,2.1,.25,2.75,.76s1.09,1.26,1.34,2.27c.25,1.01,.37,2.37,.37,4.07l-.03,1.54h-6.92v2.56c0,1.21,.07,2.16,.21,2.85,.14,.69,.39,1.2,.74,1.53,.36,.33,.86,.49,1.52,.49,.75,0,1.33-.24,1.74-.71,.41-.48,.61-1.34,.61-2.58v-1.19h2.11v.95c0,1.66-.35,2.94-1.04,3.83-.69,.89-1.83,1.34-3.42,1.34-1.11,0-2-.22-2.67-.65Zm5.02-9.66v-1.43c0-1.03-.05-1.84-.16-2.44-.11-.59-.33-1.06-.67-1.4-.34-.34-.84-.5-1.51-.5-.61,0-1.1,.13-1.46,.4s-.61,.73-.77,1.4c-.16,.66-.24,1.6-.24,2.81v1.16h4.81Z"/></g><g><path class="cls-1" d="M9.07,49.21c-.87-7.57-1-15.15-.66-22.74,.17-3.78,.44-7.56,.74-11.33-3.66,7.2-7.03,15.63-7.03,22.33s3.06,12.38,7.59,15.51c-.31-1.24-.5-2.51-.64-3.76Z"/><path class="cls-1" d="M11.34,17.94c-.31,4.23-.5,8.46-.55,12.69-.07,5.82,.1,11.63,.77,17.42,.22,1.89,.52,3.76,1.09,5.95,.82-1.91,1.57-3.5,2.19-5.14,1.6-4.2,3.67-8.26,5.05-12.51,.13-1.46,.29-2.92,.49-4.38,.07-.52,.17-1.04,.24-1.56,.1-.74,.44-1.22,1.48-1.1,1.18,.14,1.06,.9,.91,1.48-.63,2.38-.75,6.19-.76,7.21,0,.44,.03,.75,.22,1.18,1.28-3.07,2.56-6.09,4.12-9.03,.2-.37,.41-.73,.67-1.07,.96-1.21,2.94-1.29,3.93-.13,.12,.14,.2,.29,.29,.43C28.31,17.91,20.09,5,17.42,1c-1.14,1.7-3.29,5.05-5.62,9.19-.14,2.58-.27,5.17-.46,7.75Z"/><path class="cls-1" d="M19.89,54.44c-.28-2.09,.07-4.18-.1-6.28-.12-1.44-.18-2.88-.2-4.32-.68,1.67-1.46,3.24-1.46,3.24-1.21,2.74-2.31,5.23-3.42,7.72-.05,.11-.1,.22-.16,.33,.93,.21,1.89,.33,2.88,.33s1.84-.11,2.73-.3c-.13-.19-.23-.41-.26-.7Z"/><path class="cls-1" d="M32.2,32.44c-.12,.19-.35,.31-.68,.34-.7,.06-1.29-.17-1.54-.71-.26-.56-.37-1.16-.58-1.87-.96,.99-1.27,2.12-1.75,3.16-2.09,4.55-3.96,9.16-4.83,14.02-.4,2.26-.31,4.5-.01,6.75,0,.05,0,.1,.01,.14,5.78-2.57,9.9-9.13,9.9-16.81,0-1.59-.19-3.27-.53-5.02Z"/></g></svg>