<?xml version="1.0" encoding="UTF-8"?>
<svg id="Isolation_Mode" xmlns="http://www.w3.org/2000/svg"
 viewBox="0 0 200 200"><defs><style>.cls-1{fill:#010101;}
 </style>
 </defs>
 <path class="cls-1" d="M78.35,154.38c-2.25-19.6-2.6-39.25-1.71-58.94,.44-9.8,1.15-19.59,1.93-29.37-9.48,18.66-18.22,40.51-18.22,57.87s7.92,32.09,19.67,40.19c-.81-3.22-1.29-6.49-1.67-9.75Z"/>
 <path class="cls-1" d="M84.23,73.35c-.8,10.96-1.29,21.93-1.43,32.9-.19,15.07,.26,30.13,1.98,45.15,.56,4.89,1.34,9.74,2.82,15.41,2.12-4.94,4.07-9.08,5.68-13.32,4.14-10.87,9.51-21.4,13.09-32.43,.33-3.78,.76-7.56,1.28-11.34,.19-1.35,.45-2.69,.63-4.03,.25-1.92,1.13-3.16,3.84-2.85,3.06,.35,2.75,2.33,2.35,3.84-1.62,6.17-1.95,16.05-1.97,18.67,0,1.14,.07,1.95,.57,3.06,3.31-7.96,6.63-15.79,10.68-23.39,.51-.95,1.05-1.9,1.74-2.76,2.48-3.12,7.61-3.35,10.17-.34,.3,.35,.51,.74,.74,1.11-8.17-29.74-29.48-63.22-36.39-73.58-2.94,4.42-8.52,13.09-14.57,23.82-.35,6.7-.71,13.4-1.2,20.09Z"/>
 <path class="cls-1" d="M106.4,167.94c-.72-5.43,.18-10.84-.27-16.27-.31-3.74-.47-7.47-.52-11.2-1.76,4.33-3.78,8.38-3.78,8.38-3.14,7.09-5.97,13.55-8.87,20-.13,.29-.27,.57-.41,.85,2.42,.54,4.9,.85,7.45,.85s4.78-.3,7.08-.79c-.33-.48-.58-1.06-.68-1.82Z"/>
 <path class="cls-1" d="M138.28,110.94c-.31,.49-.91,.81-1.76,.87-1.82,.15-3.33-.44-3.98-1.84-.67-1.44-.96-3.01-1.51-4.85-2.49,2.56-3.3,5.49-4.54,8.19-5.42,11.8-10.27,23.75-12.51,36.32-1.04,5.85-.8,11.66-.03,17.49,.02,.13,.02,.25,.04,.37,14.97-6.67,25.66-23.65,25.66-43.56,0-4.11-.49-8.48-1.37-13.01Z"/>
 </svg>